<svg xmlns="http://www.w3.org/2000/svg" width="40" height="40" viewBox="0 0 44 44" fill="none">
    <linearGradient id="paint0_linear_14_67" x1="2200" y1="0" x2="2200" y2="4367.37" gradientUnits="userSpaceOnUse">
        <stop stop-color="#2AABEE"></stop>
        <stop offset="1" stop-color="#229ED9"></stop>
    </linearGradient>
    <g clip-path="url(#clip0_14_67)">
        <path d="M22 44C34.1503 44 44 34.1503 44 22C44 9.84974 34.1503 0 22 0C9.84974 0 0 9.84974 0 22C0 34.1503 9.84974 44 22 44Z" fill="url(#paint0_linear_14_67)"></path>
        <path fill-rule="evenodd" clip-rule="evenodd" d="M9.95843 21.7678C16.3719 18.9736 20.6485 17.1314 22.7883 16.2414C28.898 13.7002 30.1675 13.2588 30.995 13.2442C31.177 13.241 31.5839 13.2861 31.8475 13.5C32.07 13.6806 32.1313 13.9245 32.1606 14.0957C32.1899 14.267 32.2264 14.657 32.1974 14.9618C31.8663 18.4405 30.4337 26.8825 29.7049 30.7787C29.3965 32.4273 28.7892 32.9801 28.2014 33.0342C26.9238 33.1518 25.9536 32.1899 24.7162 31.3788C22.78 30.1095 21.6861 29.3194 19.8066 28.0808C17.6345 26.6494 19.0426 25.8627 20.2804 24.577C20.6044 24.2406 26.2334 19.1205 26.3424 18.656C26.356 18.5979 26.3687 18.3814 26.24 18.2671C26.1114 18.1527 25.9215 18.1918 25.7845 18.2229C25.5903 18.267 22.4971 20.3115 16.5048 24.3565C15.6268 24.9594 14.8315 25.2532 14.119 25.2378C13.3335 25.2208 11.8225 24.7936 10.6992 24.4285C9.32143 23.9806 8.22642 23.7438 8.32177 22.9833C8.37143 22.5871 8.91699 22.1819 9.95843 21.7678Z" fill="white"></path>
    </g>
</svg>
