<svg style="display:none" xmlns="http://www.w3.org/2000/svg"><symbol viewBox="0 0 64 64" fill="none" id="projects"><path d="M2 62V19H13.4286L19.4194 26.7958H62V62H2Z" stroke="currentColor"></path><path d="M20 27V2H61V27" stroke="currentColor"></path><path d="M30 10H51" stroke="currentColor"></path><path d="M30 17H51" stroke="currentColor"></path></symbol><symbol viewBox="0 0 64 64" fill="none" id="profile"><path d="M50 17.5C50 26.0603 41.941 33 32 33C22.0589 33 14 26.0603 14 17.5C14 8.93958 22.0589 2 32 2C41.941 2 50 8.93958 50 17.5Z" stroke="currentColor" stroke-linecap="round" stroke-linejoin="round"></path><path d="M45.412 41H18.5882C16.1756 41 14.9694 41 13.8903 41.1613C10.1558 41.7196 6.92651 43.6814 5.11731 46.4915C4.59456 47.3032 4.21311 48.2677 3.45016 50.1973C2.53341 52.5153 2.07506 53.6745 2.01306 54.6094C1.79441 57.9078 4.34091 60.886 8.12206 61.754C9.19376 62 10.6432 62 13.5422 62H50.458C53.357 62 54.8065 62 55.878 61.754C59.659 60.886 62.2055 57.9078 61.987 54.6094C61.925 53.6745 61.4665 52.5153 60.55 50.1973C59.787 48.2677 59.4055 47.3032 58.8825 46.4915C57.0735 43.6814 53.844 41.7196 50.1095 41.1613C49.0305 41 47.8245 41 45.412 41Z" stroke="currentColor" stroke-linecap="round" stroke-linejoin="round"></path></symbol><symbol fill="currentColor" viewBox="0 0 20 20" id="arrow"><path d="M4.516 7.548c0.436-0.446 1.043-0.481 1.576 0l3.908 3.747 3.908-3.747c0.533-0.481 1.141-0.446 1.574 0 0.436 0.445 0.408 1.197 0 1.615-0.406 0.418-4.695 4.502-4.695 4.502-0.217 0.223-0.502 0.335-0.787 0.335s-0.57-0.112-0.789-0.335c0 0-4.287-4.084-4.695-4.502s-0.436-1.17 0-1.615z"></path></symbol></svg>